<?xml version="1.0" standalone="no"?>
<!DOCTYPE svg PUBLIC "-//W3C//DTD SVG 20010904//EN"
 "http://www.w3.org/TR/2001/REC-SVG-20010904/DTD/svg10.dtd">
<svg version="1.0" xmlns="http://www.w3.org/2000/svg"
 width="826.000000pt" height="1280.000000pt" viewBox="0 0 826.000000 1280.000000"
 preserveAspectRatio="xMidYMid meet">
<metadata>
Created by potrace 1.15, written by Peter Selinger 2001-2017
</metadata>
<g transform="translate(0.000000,1280.000000) scale(0.100000,-0.100000)"
fill="#000000" stroke="none">
<path d="M3750 12719 c-238 -11 -329 -34 -398 -102 -83 -80 -126 -189 -139
-345 -3 -46 -9 -78 -14 -71 -4 7 -12 -13 -20 -47 -9 -46 -12 -303 -11 -1141
l2 -1082 -1243 -4 c-1339 -4 -1582 -11 -1644 -49 -130 -78 -188 -255 -164
-501 8 -92 9 -197 0 -426 -11 -322 -4 -498 27 -663 21 -114 44 -157 107 -204
30 -22 52 -45 50 -51 -7 -21 44 -107 89 -149 50 -48 99 -75 183 -100 56 -16
148 -17 1245 -18 1284 -1 1233 1 1287 -56 63 -67 58 192 60 -3180 1 -3196 8
-3851 38 -3950 33 -107 107 -195 213 -253 101 -55 124 -57 688 -61 865 -5
1014 14 1144 150 25 26 38 43 30 39 -8 -5 9 16 39 46 56 56 101 134 121 208 8
33 11 894 11 3495 0 2877 4 3657 18 3539 1 -8 11 -6 34 5 29 16 110 17 927 17
1237 1 1335 10 1453 132 46 47 91 123 74 124 -22 2 37 17 70 18 41 1 124 66
157 123 59 103 58 95 62 693 4 555 -1 667 -33 835 -15 78 -20 88 -62 130 -52
52 -110 82 -191 99 -41 9 -372 12 -1283 11 l-1227 -1 1 1063 c2 872 -1 1102
-13 1279 -9 122 -21 226 -28 240 -44 84 -131 154 -235 189 -61 20 -84 21 -672
24 -334 1 -673 -1 -753 -5z"/>
</g>
</svg>
